<svg xmlns="http://www.w3.org/2000/svg" viewBox="0 0 18.73 28.58"><defs><style>.cls-1{fill:#0065fb;}.cls-2{fill:#fefefe;}.cls-3{fill:#fdfdfe;}</style></defs><g id="Calque_2" data-name="Calque 2"><g id="Calque_1-2" data-name="Calque 1"><path class="cls-1" d="M13.2,14.93c1.52.79,2.84,1.67,3.37,3.28a6.29,6.29,0,0,1-.31,4.67,7.42,7.42,0,0,1-5.42,4.23c-1.87.4-3.81.47-5.61,1.28-.57.26-1.41.44-1.25-.74.07-.56-.24-.77-.72-.89-.32-.08-.63-.21-.94-.32A1.12,1.12,0,0,1,1.61,25c.19-.84.81-.33,1.2-.22.82.24,1.41.31,1.41-.83,0-6.32,0-12.63,0-19.09A2.92,2.92,0,0,0,2.56,8.24c-2.9-.91-3.38-3-1.2-5,1.23-1.16,3-1.58,4.18-2.84A1,1,0,0,1,7.33.67c.27.58.75.27,1.16.3a19.5,19.5,0,0,1,5.57.81c5,1.76,6.25,7.28,2.45,11Z"/><path class="cls-2" d="M7.25,9.2c0-1.49,0-3,0-4.45,0-.72.29-1,1-.94a9.9,9.9,0,0,1,4.63,1.1,3.85,3.85,0,0,1,1.35,5.91A9.39,9.39,0,0,1,8.14,14.5c-.89.18-.89-.25-.89-.86,0-1.48,0-3,0-4.44Z"/><path class="cls-3" d="M7.33,20.43a23.58,23.58,0,0,0,0-2.79c-.16-1.26.4-1.44,1.49-1.39,2.87.13,4.77,1.68,4.74,4a5.37,5.37,0,0,1-5.11,5.07c-.78,0-1-.29-1-.94V20.43Z"/></g></g></svg>